<svg width="1304" height="1304" viewBox="0 0 1304 1304" fill="none" xmlns="http://www.w3.org/2000/svg">
<mask id="mask0_1216_179" style="mask-type:alpha" maskUnits="userSpaceOnUse" x="0" y="0" width="1304" height="1304">
<circle cx="652" cy="652" r="652" fill="#162035"/>
</mask>
<g mask="url(#mask0_1216_179)">
<circle cx="652" cy="652" r="652" fill="#050A14"/>
<g style="mix-blend-mode:overlay" filter="url(#filter0_i_1216_179)">
<circle cx="652" cy="618" r="652" fill="#0C1B31" fill-opacity="0.08"/>
</g>
<g style="mix-blend-mode:overlay" filter="url(#filter1_i_1216_179)">
<circle cx="652" cy="618" r="652" fill="#0C1B31" fill-opacity="0.08"/>
</g>
<g style="mix-blend-mode:overlay" filter="url(#filter2_i_1216_179)">
<circle cx="652" cy="618" r="652" fill="#0C1B31" fill-opacity="0.08"/>
</g>
<g style="mix-blend-mode:overlay" filter="url(#filter3_i_1216_179)">
<circle cx="652" cy="618" r="652" fill="#0C1B31" fill-opacity="0.08"/>
</g>
<g style="mix-blend-mode:overlay" filter="url(#filter4_f_1216_179)">
<path fill-rule="evenodd" clip-rule="evenodd" d="M1314.46 765.419C1319.41 732.581 1321.98 698.961 1321.98 664.743C1321.98 294.724 1022.02 -5.23523 652 -5.23523C281.981 -5.23523 -17.978 294.724 -17.978 664.743C-17.978 698.961 -15.4127 732.581 -10.4639 765.419C38.1005 443.163 316.2 196.118 652 196.118C987.8 196.118 1265.9 443.163 1314.46 765.419Z" fill="white"/>
</g>
<g style="mix-blend-mode:overlay" filter="url(#filter5_f_1216_179)">
<path fill-rule="evenodd" clip-rule="evenodd" d="M1321 701.298C1321.65 689.195 1321.98 677.008 1321.98 664.743C1321.98 294.724 1022.02 -5.23523 652 -5.23523C281.981 -5.23523 -17.978 294.724 -17.978 664.743C-17.978 677.007 -17.6485 689.195 -16.9977 701.298C1.98429 348.279 294.246 67.8751 652 67.8751C1009.75 67.8751 1302.02 348.279 1321 701.298Z" fill="white"/>
</g>
<g style="mix-blend-mode:overlay" filter="url(#filter6_f_1216_179)">
<path fill-rule="evenodd" clip-rule="evenodd" d="M1321 701.298C1321.65 689.195 1321.98 677.008 1321.98 664.743C1321.98 294.724 1022.02 -5.23523 652 -5.23523C281.981 -5.23523 -17.978 294.724 -17.978 664.743C-17.978 677.007 -17.6485 689.195 -16.9977 701.298C1.98429 348.279 294.246 67.8751 652 67.8751C1009.75 67.8751 1302.02 348.279 1321 701.298Z" fill="white"/>
</g>
<g style="mix-blend-mode:plus-lighter" filter="url(#filter7_f_1216_179)">
<path fill-rule="evenodd" clip-rule="evenodd" d="M1321.75 674.654C1321.9 668.788 1321.98 662.903 1321.98 657C1321.98 286.981 1022.02 -12.9779 652 -12.9779C281.981 -12.9779 -17.978 286.981 -17.978 657C-17.978 662.903 -17.9017 668.788 -17.75 674.654C-8.38928 312.796 287.884 22.3309 652 22.3309C1016.12 22.3309 1312.39 312.796 1321.75 674.654Z" fill="#D3FFFF"/>
</g>
</g>
<defs>
<filter id="filter0_i_1216_179" x="0" y="-34" width="1304" height="1308" filterUnits="userSpaceOnUse" color-interpolation-filters="sRGB">
<feFlood flood-opacity="0" result="BackgroundImageFix"/>
<feBlend mode="normal" in="SourceGraphic" in2="BackgroundImageFix" result="shape"/>
<feColorMatrix in="SourceAlpha" type="matrix" values="0 0 0 0 0 0 0 0 0 0 0 0 0 0 0 0 0 0 127 0" result="hardAlpha"/>
<feOffset dy="4"/>
<feGaussianBlur stdDeviation="18"/>
<feComposite in2="hardAlpha" operator="arithmetic" k2="-1" k3="1"/>
<feColorMatrix type="matrix" values="0 0 0 0 1 0 0 0 0 1 0 0 0 0 1 0 0 0 1 0"/>
<feBlend mode="normal" in2="shape" result="effect1_innerShadow_1216_179"/>
</filter>
<filter id="filter1_i_1216_179" x="0" y="-34" width="1304" height="1308" filterUnits="userSpaceOnUse" color-interpolation-filters="sRGB">
<feFlood flood-opacity="0" result="BackgroundImageFix"/>
<feBlend mode="normal" in="SourceGraphic" in2="BackgroundImageFix" result="shape"/>
<feColorMatrix in="SourceAlpha" type="matrix" values="0 0 0 0 0 0 0 0 0 0 0 0 0 0 0 0 0 0 127 0" result="hardAlpha"/>
<feOffset dy="4"/>
<feGaussianBlur stdDeviation="18"/>
<feComposite in2="hardAlpha" operator="arithmetic" k2="-1" k3="1"/>
<feColorMatrix type="matrix" values="0 0 0 0 1 0 0 0 0 1 0 0 0 0 1 0 0 0 1 0"/>
<feBlend mode="normal" in2="shape" result="effect1_innerShadow_1216_179"/>
</filter>
<filter id="filter2_i_1216_179" x="0" y="-34" width="1304" height="1308" filterUnits="userSpaceOnUse" color-interpolation-filters="sRGB">
<feFlood flood-opacity="0" result="BackgroundImageFix"/>
<feBlend mode="normal" in="SourceGraphic" in2="BackgroundImageFix" result="shape"/>
<feColorMatrix in="SourceAlpha" type="matrix" values="0 0 0 0 0 0 0 0 0 0 0 0 0 0 0 0 0 0 127 0" result="hardAlpha"/>
<feOffset dy="4"/>
<feGaussianBlur stdDeviation="18"/>
<feComposite in2="hardAlpha" operator="arithmetic" k2="-1" k3="1"/>
<feColorMatrix type="matrix" values="0 0 0 0 1 0 0 0 0 1 0 0 0 0 1 0 0 0 1 0"/>
<feBlend mode="normal" in2="shape" result="effect1_innerShadow_1216_179"/>
</filter>
<filter id="filter3_i_1216_179" x="0" y="-34" width="1304" height="1308" filterUnits="userSpaceOnUse" color-interpolation-filters="sRGB">
<feFlood flood-opacity="0" result="BackgroundImageFix"/>
<feBlend mode="normal" in="SourceGraphic" in2="BackgroundImageFix" result="shape"/>
<feColorMatrix in="SourceAlpha" type="matrix" values="0 0 0 0 0 0 0 0 0 0 0 0 0 0 0 0 0 0 127 0" result="hardAlpha"/>
<feOffset dy="4"/>
<feGaussianBlur stdDeviation="18"/>
<feComposite in2="hardAlpha" operator="arithmetic" k2="-1" k3="1"/>
<feColorMatrix type="matrix" values="0 0 0 0 1 0 0 0 0 1 0 0 0 0 1 0 0 0 1 0"/>
<feBlend mode="normal" in2="shape" result="effect1_innerShadow_1216_179"/>
</filter>
<filter id="filter4_f_1216_179" x="-41.978" y="-29.2352" width="1387.96" height="818.654" filterUnits="userSpaceOnUse" color-interpolation-filters="sRGB">
<feFlood flood-opacity="0" result="BackgroundImageFix"/>
<feBlend mode="normal" in="SourceGraphic" in2="BackgroundImageFix" result="shape"/>
<feGaussianBlur stdDeviation="12" result="effect1_foregroundBlur_1216_179"/>
</filter>
<filter id="filter5_f_1216_179" x="-41.978" y="-29.2352" width="1387.96" height="754.533" filterUnits="userSpaceOnUse" color-interpolation-filters="sRGB">
<feFlood flood-opacity="0" result="BackgroundImageFix"/>
<feBlend mode="normal" in="SourceGraphic" in2="BackgroundImageFix" result="shape"/>
<feGaussianBlur stdDeviation="12" result="effect1_foregroundBlur_1216_179"/>
</filter>
<filter id="filter6_f_1216_179" x="-41.978" y="-29.2352" width="1387.96" height="754.533" filterUnits="userSpaceOnUse" color-interpolation-filters="sRGB">
<feFlood flood-opacity="0" result="BackgroundImageFix"/>
<feBlend mode="normal" in="SourceGraphic" in2="BackgroundImageFix" result="shape"/>
<feGaussianBlur stdDeviation="12" result="effect1_foregroundBlur_1216_179"/>
</filter>
<filter id="filter7_f_1216_179" x="-33.978" y="-28.9779" width="1371.96" height="719.632" filterUnits="userSpaceOnUse" color-interpolation-filters="sRGB">
<feFlood flood-opacity="0" result="BackgroundImageFix"/>
<feBlend mode="normal" in="SourceGraphic" in2="BackgroundImageFix" result="shape"/>
<feGaussianBlur stdDeviation="8" result="effect1_foregroundBlur_1216_179"/>
</filter>
</defs>
</svg>
